<svg width="28" height="28" viewBox="0 0 28 28" fill="none" xmlns="http://www.w3.org/2000/svg">
<path d="M26.2548 0H1.52806C1.12279 0 0.734123 0.160991 0.447557 0.447557C0.160991 0.734123 0 1.12279 0 1.52806V26.2548C0 26.66 0.160991 27.0487 0.447557 27.3353C0.734123 27.6218 1.12279 27.7828 1.52806 27.7828H14.836V17.017H11.2243V12.8496H14.836V9.72399C14.7612 8.99019 14.8478 8.2489 15.0899 7.55212C15.3319 6.85534 15.7234 6.21995 16.2369 5.6905C16.7505 5.16105 17.3737 4.75037 18.0628 4.48726C18.7519 4.22415 19.4902 4.11499 20.2259 4.16743C21.3071 4.16077 22.3878 4.21643 23.4626 4.33412V8.08481H21.2539C19.5035 8.08481 19.1702 8.91829 19.1702 10.1268V12.8079H23.3376L22.7958 16.9753H19.1702V27.7828H26.2548C26.4554 27.7828 26.6541 27.7433 26.8395 27.6665C27.0249 27.5897 27.1934 27.4772 27.3353 27.3353C27.4772 27.1934 27.5897 27.0249 27.6665 26.8395C27.7433 26.6541 27.7828 26.4554 27.7828 26.2548V1.52806C27.7828 1.32739 27.7433 1.12869 27.6665 0.943294C27.5897 0.757902 27.4772 0.589451 27.3353 0.447557C27.1934 0.305664 27.0249 0.193108 26.8395 0.116316C26.6541 0.0395245 26.4554 0 26.2548 0Z" fill="white"/>
</svg>
