<svg width="28" height="28" viewBox="0 0 28 28" fill="none" xmlns="http://www.w3.org/2000/svg">
<path d="M13.8914 10.4463C13.21 10.4463 12.544 10.6484 11.9774 11.0269C11.4109 11.4055 10.9693 11.9435 10.7086 12.573C10.4478 13.2026 10.3796 13.8952 10.5125 14.5635C10.6455 15.2318 10.9736 15.8456 11.4554 16.3275C11.9372 16.8093 12.551 17.1374 13.2193 17.2703C13.8876 17.4032 14.5803 17.335 15.2098 17.0742C15.8393 16.8135 16.3773 16.3719 16.7559 15.8054C17.1344 15.2389 17.3365 14.5728 17.3365 13.8914C17.3365 13.439 17.2474 12.991 17.0742 12.573C16.9011 12.1551 16.6474 11.7753 16.3275 11.4554C16.0075 11.1355 15.6278 10.8817 15.2098 10.7086C14.7918 10.5355 14.3438 10.4463 13.8914 10.4463ZM27.6856 7.04295C27.6783 5.9702 27.4807 4.90724 27.1022 3.90349C26.8233 3.16899 26.3919 2.50197 25.8364 1.94644C25.2809 1.39092 24.6138 0.959505 23.8793 0.68068C22.8756 0.302088 21.8126 0.104548 20.7399 0.0972398C18.9479 -9.31492e-08 18.42 0 13.8914 0C9.36282 0 8.83494 -9.31492e-08 7.04295 0.0972398C5.9702 0.104548 4.90724 0.302088 3.90349 0.68068C3.16899 0.959505 2.50197 1.39092 1.94644 1.94644C1.39092 2.50197 0.959505 3.16899 0.68068 3.90349C0.302088 4.90724 0.104548 5.9702 0.0972398 7.04295C-9.31492e-08 8.83494 0 9.36282 0 13.8914C0 18.42 -9.31492e-08 18.9479 0.0972398 20.7399C0.112192 21.8164 0.309465 22.8826 0.68068 23.8932C0.958269 24.6244 1.38932 25.2875 1.9448 25.838C2.49795 26.3969 3.16639 26.8283 3.90349 27.1022C4.90724 27.4807 5.9702 27.6783 7.04295 27.6856C8.83494 27.7828 9.36282 27.7828 13.8914 27.7828C18.42 27.7828 18.9479 27.7828 20.7399 27.6856C21.8126 27.6783 22.8756 27.4807 23.8793 27.1022C24.6164 26.8283 25.2849 26.3969 25.838 25.838C26.3935 25.2875 26.8246 24.6244 27.1022 23.8932C27.4804 22.8846 27.6779 21.8171 27.6856 20.7399C27.7828 18.9479 27.7828 18.42 27.7828 13.8914C27.7828 9.36282 27.7828 8.83494 27.6856 7.04295ZM24.1572 18.1561C24.1126 19.0133 23.9296 19.8577 23.6154 20.6565C23.3457 21.3229 22.9448 21.9282 22.4365 22.4365C21.9282 22.9448 21.3229 23.3457 20.6565 23.6154C19.8502 23.9121 19.0011 24.0763 18.1422 24.1016C17.0448 24.1016 16.753 24.1016 13.8914 24.1016C11.0298 24.1016 10.7381 24.1016 9.64064 24.1016C8.78178 24.0763 7.93268 23.9121 7.1263 23.6154C6.43743 23.3594 5.81533 22.951 5.30652 22.4207C4.80319 21.9224 4.41448 21.3204 4.16743 20.6565C3.86953 19.851 3.70985 19.0009 3.69512 18.1422C3.69512 17.0448 3.69512 16.753 3.69512 13.8914C3.69512 11.0298 3.69512 10.7381 3.69512 9.64064C3.70985 8.78191 3.86953 7.93184 4.16743 7.1263C4.42342 6.43743 4.83182 5.81533 5.36209 5.30652C5.86264 4.80591 6.46404 4.4176 7.1263 4.16743C7.93268 3.87071 8.78178 3.70652 9.64064 3.68123H13.8914C13.8914 3.68123 17.0448 3.68123 18.1422 3.68123C19.0011 3.70652 19.8502 3.87071 20.6565 4.16743C21.3454 4.42342 21.9675 4.83182 22.4763 5.36209C22.9796 5.86044 23.3684 6.46247 23.6154 7.1263C23.9121 7.93268 24.0763 8.78178 24.1016 9.64064V13.8914C24.1016 13.8914 24.1988 17.0448 24.1572 18.1422V18.1561ZM21.9345 7.82087C21.7692 7.37215 21.5084 6.96466 21.1702 6.6265C20.8321 6.28835 20.4246 6.02757 19.9759 5.86218C19.3597 5.64861 18.7108 5.54516 18.0588 5.55657C16.9753 5.55657 16.6697 5.55657 13.8914 5.55657C11.1131 5.55657 10.8075 5.55657 9.72399 5.55657C9.06869 5.56297 8.41968 5.68525 7.80698 5.91774C7.36513 6.07563 6.96195 6.32575 6.62424 6.65149C6.28653 6.97723 6.02201 7.37112 5.84829 7.80698C5.64655 8.42565 5.54799 9.07331 5.55657 9.72399V13.8914C5.55657 13.8914 5.55657 16.9753 5.55657 18.0588C5.57034 18.7134 5.69238 19.3612 5.91774 19.9759C6.08314 20.4246 6.34391 20.8321 6.68207 21.1702C7.02023 21.5084 7.42772 21.7692 7.87643 21.9345C8.46913 22.1525 9.09284 22.2745 9.72399 22.2957H13.8914C13.8914 22.2957 16.9753 22.2957 18.0588 22.2957C18.7141 22.2893 19.3632 22.167 19.9759 21.9345C20.4246 21.7692 20.8321 21.5084 21.1702 21.1702C21.5084 20.8321 21.7692 20.4246 21.9345 19.9759C22.167 19.3632 22.2893 18.7141 22.2957 18.0588C22.2957 16.9753 22.2957 16.6697 22.2957 13.8914C22.2957 11.1131 22.2957 10.8075 22.2957 9.72399C22.2961 9.06804 22.1736 8.41781 21.9345 7.80698V7.82087ZM13.8914 19.1979C13.1952 19.1979 12.5058 19.0606 11.8628 18.7937C11.2198 18.5269 10.6357 18.1358 10.144 17.6429C9.6524 17.1499 9.26283 16.5648 8.99767 15.9211C8.73251 15.2774 8.59696 14.5876 8.59879 13.8914C8.59879 12.8413 8.91037 11.8148 9.49407 10.9418C10.0778 10.0689 10.9074 9.38874 11.8778 8.98752C12.8483 8.58629 13.9159 8.48202 14.9457 8.6879C15.9754 8.89378 16.9209 9.40056 17.6625 10.1441C18.4041 10.8876 18.9084 11.8344 19.1116 12.8647C19.3147 13.895 19.2077 14.9624 18.8039 15.9318C18.4001 16.9012 17.7178 17.729 16.8433 18.3104C15.9689 18.8918 14.9415 19.2007 13.8914 19.1979ZM19.448 9.62675C19.1409 9.59425 18.8567 9.44925 18.6502 9.21969C18.4436 8.99014 18.3294 8.69227 18.3294 8.38347C18.3294 8.07467 18.4436 7.7768 18.6502 7.54725C18.8567 7.31769 19.1409 7.17269 19.448 7.14019C19.7551 7.17269 20.0393 7.31769 20.2458 7.54725C20.4523 7.7768 20.5666 8.07467 20.5666 8.38347C20.5666 8.69227 20.4523 8.99014 20.2458 9.21969C20.0393 9.44925 19.7551 9.59425 19.448 9.62675Z" fill="white"/>
</svg>
