<svg width="28" height="28" viewBox="0 0 28 28" fill="none" xmlns="http://www.w3.org/2000/svg">
<path d="M25.7285 0.000195417H2.05436C1.78825 -0.00350051 1.524 0.0452622 1.27673 0.143699C1.02946 0.242135 0.804002 0.388317 0.613231 0.573897C0.422461 0.759476 0.270116 0.980818 0.164897 1.22528C0.0596777 1.46974 0.0036453 1.73254 0 1.99866V25.9523C0.0036453 26.2184 0.0596777 26.4812 0.164897 26.7256C0.270116 26.9701 0.422461 27.1914 0.613231 27.377C0.804002 27.5626 1.02946 27.7088 1.27673 27.8072C1.524 27.9057 1.78825 27.9544 2.05436 27.9507H25.7285C25.9946 27.9544 26.2588 27.9057 26.5061 27.8072C26.7534 27.7088 26.9788 27.5626 27.1696 27.377C27.3604 27.1914 27.5127 26.9701 27.6179 26.7256C27.7232 26.4812 27.7792 26.2184 27.7828 25.9523V1.99866C27.7792 1.73254 27.7232 1.46974 27.6179 1.22528C27.5127 0.980818 27.3604 0.759476 27.1696 0.573897C26.9788 0.388317 26.7534 0.242135 26.5061 0.143699C26.2588 0.0452622 25.9946 -0.00350051 25.7285 0.000195417ZM8.42709 23.3948H4.23451V10.8171H8.42709V23.3948ZM6.3308 9.05617C6.0445 9.05617 5.761 8.99978 5.49649 8.89021C5.23199 8.78065 4.99165 8.62006 4.7892 8.41762C4.58676 8.21517 4.42617 7.97484 4.31661 7.71033C4.20705 7.44582 4.15065 7.16233 4.15065 6.87603C4.15065 6.58973 4.20705 6.30623 4.31661 6.04172C4.42617 5.77722 4.58676 5.53688 4.7892 5.33443C4.99165 5.13199 5.23199 4.9714 5.49649 4.86184C5.761 4.75228 6.0445 4.69589 6.3308 4.69589C6.63783 4.66107 6.94875 4.69149 7.24321 4.78516C7.53767 4.87884 7.80902 5.03365 8.03949 5.23947C8.26997 5.44529 8.45438 5.69746 8.58064 5.97949C8.7069 6.26151 8.77216 6.56703 8.77216 6.87603C8.77216 7.18503 8.7069 7.49054 8.58064 7.77256C8.45438 8.05459 8.26997 8.30677 8.03949 8.51258C7.80902 8.7184 7.53767 8.87321 7.24321 8.96689C6.94875 9.06057 6.63783 9.09099 6.3308 9.05617ZM23.5483 23.3948H19.3557V16.6447C19.3557 14.9537 18.7548 13.8497 17.2315 13.8497C16.7601 13.8531 16.301 14.001 15.9162 14.2734C15.5314 14.5457 15.2393 14.9295 15.0793 15.373C14.97 15.7015 14.9226 16.0474 14.9396 16.3932V23.3808H10.747C10.747 23.3808 10.747 11.949 10.747 10.8031H14.9396V12.5779C15.3204 11.9171 15.8744 11.3726 16.5417 11.0032C17.2091 10.6338 17.9646 10.4535 18.7269 10.4816C21.5219 10.4816 23.5483 12.2845 23.5483 16.1556V23.3948Z" fill="white"/>
</svg>
