<svg width="15" height="15" viewBox="0 0 15 15" fill="none" xmlns="http://www.w3.org/2000/svg">
<path d="M13.8908 0.000104876H1.10916C0.965476 -0.0018786 0.822813 0.0242901 0.68931 0.0771167C0.555807 0.129942 0.434082 0.208393 0.331085 0.307985C0.228088 0.407577 0.145836 0.52636 0.0890282 0.657553C0.0322201 0.788745 0.0019681 0.929776 0 1.07259V13.9274C0.0019681 14.0702 0.0322201 14.2113 0.0890282 14.3425C0.145836 14.4736 0.228088 14.5924 0.331085 14.692C0.434082 14.7916 0.555807 14.8701 0.68931 14.9229C0.822813 14.9757 0.965476 15.0019 1.10916 14.9999H13.8908C14.0345 15.0019 14.1772 14.9757 14.3107 14.9229C14.4442 14.8701 14.5659 14.7916 14.6689 14.692C14.7719 14.5924 14.8542 14.4736 14.911 14.3425C14.9678 14.2113 14.998 14.0702 15 13.9274V1.07259C14.998 0.929776 14.9678 0.788745 14.911 0.657553C14.8542 0.52636 14.7719 0.407577 14.6689 0.307985C14.5659 0.208393 14.4442 0.129942 14.3107 0.0771167C14.1772 0.0242901 14.0345 -0.0018786 13.8908 0.000104876ZM4.54979 12.5549H2.28621V5.80502H4.54979V12.5549ZM3.41801 4.86004C3.26344 4.86004 3.11038 4.82977 2.96756 4.77098C2.82476 4.71217 2.69499 4.62599 2.58569 4.51735C2.47639 4.40871 2.38969 4.27974 2.33055 4.13778C2.27138 3.99583 2.24094 3.8437 2.24094 3.69005C2.24094 3.53641 2.27138 3.38427 2.33055 3.24233C2.38969 3.10037 2.47639 2.9714 2.58569 2.86276C2.69499 2.75411 2.82476 2.66793 2.96756 2.60913C3.11038 2.55034 3.26344 2.52006 3.41801 2.52006C3.58378 2.50138 3.75163 2.51771 3.91062 2.56798C4.06959 2.61825 4.2161 2.70134 4.34054 2.8118C4.46497 2.92224 4.56453 3.05758 4.6327 3.20892C4.70087 3.36027 4.73611 3.52423 4.73611 3.69005C4.73611 3.85588 4.70087 4.01984 4.6327 4.17118C4.56453 4.32254 4.46497 4.45787 4.34054 4.56833C4.2161 4.67877 4.06959 4.76185 3.91062 4.81212C3.75163 4.86239 3.58378 4.87872 3.41801 4.86004ZM12.7138 12.5549H10.4502V8.93248C10.4502 8.02499 10.1257 7.4325 9.30332 7.4325C9.04878 7.43435 8.80094 7.5137 8.59319 7.65988C8.38543 7.80604 8.22773 8.01199 8.14134 8.25C8.0823 8.42626 8.05671 8.61191 8.06589 8.79749V12.5474H5.80231C5.80231 12.5474 5.80231 6.41251 5.80231 5.79752H8.06589V6.75002C8.27152 6.39535 8.5706 6.10317 8.93091 5.90492C9.29122 5.70669 9.69911 5.60992 10.1107 5.62502C11.6197 5.62502 12.7138 6.59252 12.7138 8.66999V12.5549Z" fill="#006FBF"/>
</svg>
