<svg width="15" height="15" viewBox="0 0 15 15" fill="none" xmlns="http://www.w3.org/2000/svg">
<path d="M13.4325 10.1325H10.035C9.83609 10.1325 9.64532 10.2115 9.50467 10.3522C9.36402 10.4928 9.285 10.6836 9.285 10.8825C9.285 11.0814 9.36402 11.2722 9.50467 11.4128C9.64532 11.5535 9.83609 11.6325 10.035 11.6325H11.835C11.0077 12.4971 9.9408 13.0945 8.77137 13.348C7.60194 13.6016 6.38341 13.4997 5.27233 13.0554C4.16126 12.6112 3.2084 11.8448 2.53619 10.8549C1.86398 9.86493 1.50313 8.6966 1.5 7.5C1.5 7.30109 1.42098 7.11032 1.28033 6.96967C1.13968 6.82902 0.948912 6.75 0.75 6.75C0.551088 6.75 0.360322 6.82902 0.21967 6.96967C0.0790176 7.11032 0 7.30109 0 7.5C0.00396499 8.9646 0.436666 10.396 1.2447 11.6175C2.05274 12.8391 3.20075 13.7973 4.54706 14.3739C5.89336 14.9506 7.37905 15.1204 8.82076 14.8625C10.2625 14.6046 11.5971 13.9302 12.66 12.9225V14.25C12.66 14.4489 12.739 14.6397 12.8797 14.7803C13.0203 14.921 13.2111 15 13.41 15C13.6089 15 13.7997 14.921 13.9403 14.7803C14.081 14.6397 14.16 14.4489 14.16 14.25V10.875C14.1581 10.6812 14.0814 10.4957 13.9457 10.3573C13.8101 10.2189 13.6262 10.1383 13.4325 10.1325ZM7.5 0C5.57729 0.00548414 3.73012 0.749185 2.34 2.0775V0.75C2.34 0.551088 2.26098 0.360322 2.12033 0.21967C1.97968 0.0790176 1.78891 0 1.59 0C1.39109 0 1.20032 0.0790176 1.05967 0.21967C0.919018 0.360322 0.84 0.551088 0.84 0.75V4.125C0.84 4.32391 0.919018 4.51468 1.05967 4.65533C1.20032 4.79598 1.39109 4.875 1.59 4.875H4.965C5.16391 4.875 5.35468 4.79598 5.49533 4.65533C5.63598 4.51468 5.715 4.32391 5.715 4.125C5.715 3.92609 5.63598 3.73532 5.49533 3.59467C5.35468 3.45402 5.16391 3.375 4.965 3.375H3.165C3.99185 2.5109 5.05807 1.91362 6.2268 1.65983C7.39553 1.40604 8.61344 1.50731 9.72421 1.95065C10.835 2.39398 11.7879 3.15916 12.4607 4.14795C13.1335 5.13675 13.4954 6.30404 13.5 7.5C13.5 7.69891 13.579 7.88968 13.7197 8.03033C13.8603 8.17098 14.0511 8.25 14.25 8.25C14.4489 8.25 14.6397 8.17098 14.7803 8.03033C14.921 7.88968 15 7.69891 15 7.5C15 6.51509 14.806 5.53982 14.4291 4.62987C14.0522 3.71993 13.4997 2.89314 12.8033 2.1967C12.1069 1.50026 11.2801 0.947814 10.3701 0.570904C9.46018 0.193993 8.48491 0 7.5 0Z" fill="black"/>
</svg>
